PathFileType	4	(X/Y/Z)	s05c0302.trc
DataRate	CameraRate	NumFrames	NumMarkers	Units	OrigDataRate	OrigDataStartFrame	OrigNumFrames
200	200	5	49	mm	200	1250	2000
Frame#	Time	racr			lacr			c7			jug			rlel			rdr			llel			ldr			s2			lic			ric			lasi			rasi			rpsi			lpsi			rgt			lgt			rth1			rth2			rth3			rth4			rlfc			rsh1			rsh2			rsh3			rsh4			rlmal			rmmal			rcal			rtoe			rmt5			lth1			lth2			lth4			lth3			llfc			lmfc			lsh1			lsh2			lsh3			lsh4			llmal			lmmal			lcal			ltoe			lmt5			SBIKE			LBIKE			RBIKE			
		X1	Y1	Z1	X2	Y2	Z2	X3	Y3	Z3	X4	Y4	Z4	X5	Y5	Z5	X6	Y6	Z6	X7	Y7	Z7	X8	Y8	Z8	X9	Y9	Z9	X10	Y10	Z10	X11	Y11	Z11	X12	Y12	Z12	X13	Y13	Z13	X14	Y14	Z14	X15	Y15	Z15	X16	Y16	Z16	X17	Y17	Z17	X18	Y18	Z18	X19	Y19	Z19	X20	Y20	Z20	X21	Y21	Z21	X22	Y22	Z22	X23	Y23	Z23	X24	Y24	Z24	X25	Y25	Z25	X26	Y26	Z26	X27	Y27	Z27	X28	Y28	Z28	X29	Y29	Z29	X30	Y30	Z30	X31	Y31	Z31	X32	Y32	Z32	X33	Y33	Z33	X34	Y34	Z34	X35	Y35	Z35	X36	Y36	Z36	X37	Y37	Z37	X38	Y38	Z38	X39	Y39	Z39	X40	Y40	Z40	X41	Y41	Z41	X42	Y42	Z42	X43	Y43	Z43	X44	Y44	Z44	X45	Y45	Z45	X46	Y46	Z46	X47	Y47	Z47	X48	Y48	Z48	X49	Y49	Z49	
1250	6.2500	770.706193	1240.506465	-181.002839	728.972110	1300.893769	-455.146396	742.617837	1347.399491	-313.148211	676.598539	1194.681842	-327.765473	602.517138	1097.900796	14.947860	703.869131	929.050805	-91.550483	535.635098	1099.727730	-576.054602	692.831095	919.798738	-485.536574	154.796819	1221.988236	-268.076145	288.622207	1247.816026	-416.152058	313.413664	1193.480156	-137.770524	325.989142	1180.298409	-392.503544	339.572164	1131.888153	-178.198486	200.216866	1254.916560	-218.126559	197.548999	1274.403744	-303.441232	225.178004	1067.449373	-129.769339	224.627280	1152.412419	-456.963412	256.359769	960.025241	-111.804842	289.361701	877.049415	-109.726957	275.883675	789.945800	-115.769414	325.258453	881.251205	-118.309343	309.877674	646.257150	-139.916178	248.834797	558.320012	-106.442164	242.451819	470.214402	-116.112711	196.910146	397.679646	-117.071850	271.443500	463.320588	-141.488679	160.773060	267.805644	-122.159909	178.972100	290.118782	-201.606611	87.322541	254.357264	-166.635825	365.452967	147.004787	-156.799443	260.939000	157.617942	-93.555079	331.314108	1056.518914	-483.050609	412.469589	1029.987057	-480.571102	432.331983	1055.531322	-458.956143	472.770672	962.310900	-486.551782	563.826362	848.308387	-459.430016	550.070950	832.330550	-348.831708	459.422881	791.011591	-479.197766	397.633132	730.756025	-466.326697	311.704368	708.285881	-464.074782	415.126010	704.003306	-444.839606	210.999439	641.535628	-455.001535	247.528701	638.312577	-381.723299	146.273659	672.482052	-415.551221	251.159646	397.887101	-392.495438	186.381824	479.708158	-464.324688	-169.659210	900.389991	-272.988156	-53.262262	79.408087	-474.715695	-53.302364	79.166528	-77.120197	
1251	6.2550	770.244527	1240.279532	-183.422905	727.529073	1299.991998	-459.284789	741.894617	1346.597200	-315.859182	674.974467	1193.996638	-329.929204	603.951561	1098.386287	15.058375	703.838265	928.649962	-91.349191	533.361197	1097.995526	-576.889806	692.780481	920.317816	-485.315567	154.859046	1222.258647	-264.047841	286.402284	1249.936106	-413.576675	315.795042	1192.190209	-136.325130	324.777826	1182.372339	-391.376585	341.045968	1130.731455	-178.006731	201.147955	1254.602054	-214.342619	196.352477	1274.723262	-299.330730	226.589467	1067.010064	-128.478395	223.625176	1154.727516	-454.650036	254.811416	960.224215	-110.029837	286.390390	876.644890	-107.231601	271.399226	789.825051	-113.108474	322.334028	880.389312	-115.538852	303.260963	645.091951	-137.648302	242.443285	557.658474	-104.214029	235.352915	469.645374	-113.982835	189.449013	397.260713	-115.077539	264.459368	462.441412	-139.234661	153.373174	267.065508	-120.607394	171.390999	289.645633	-199.891327	79.770944	255.122101	-164.981783	355.673846	142.108738	-157.073982	251.758271	154.427833	-93.246375	331.133828	1060.431626	-481.990126	412.704977	1035.553601	-480.034360	432.181327	1061.154182	-458.049016	474.394306	969.056850	-486.652651	568.039586	856.937597	-460.258185	555.886131	840.253032	-349.917825	465.090861	798.934225	-480.048450	404.025477	738.066338	-467.069586	318.334331	714.670391	-464.338506	421.968967	711.272239	-446.246778	218.002836	645.239328	-454.736704	254.319834	642.657862	-381.727473	152.869565	674.979346	-415.314931	262.271697	402.210808	-392.375906	196.265238	483.207738	-464.334038	-169.952489	899.381531	-275.534820	-53.252680	79.470715	-474.696577	-53.306507	79.156610	-77.079923	
1252	6.2600	769.773742	1239.891849	-185.762260	726.089324	1298.470226	-462.025353	741.183009	1345.560099	-318.545921	673.147531	1193.299848	-331.992935	605.141705	1098.953464	15.180534	704.106560	928.308316	-91.282433	531.147465	1096.073327	-577.421824	692.968434	920.575055	-484.653047	155.237077	1222.509146	-260.347939	284.208386	1252.277523	-411.118417	318.157662	1191.425100	-134.835297	323.495372	1184.727801	-390.177262	343.150685	1130.596709	-176.567263	202.183075	1254.814412	-210.746472	196.165868	1275.376579	-295.027129	228.005179	1067.058466	-127.164315	222.422263	1157.323279	-452.403984	253.500895	961.139574	-108.466723	283.708158	877.161860	-104.831543	267.399677	790.553917	-110.536349	320.024885	880.528904	-112.226293	297.268041	644.754681	-135.108768	236.221730	557.769546	-102.082877	228.490077	469.600921	-112.020890	182.413124	397.560850	-112.888698	258.054929	462.642869	-136.846341	146.265279	267.035440	-119.098197	164.428186	289.676392	-198.091629	72.479973	256.993644	-162.994105	345.363428	137.169188	-158.297900	242.550117	151.939317	-92.808062	330.700423	1064.375769	-480.428996	412.748342	1041.010201	-479.434698	431.936222	1066.925617	-457.458053	475.518295	975.688763	-486.710912	571.684871	865.481826	-461.945786	560.818720	848.416946	-350.519998	470.142082	806.485164	-480.680294	409.895348	744.856425	-467.581388	324.514663	720.423718	-464.395489	428.360406	717.984877	-447.254066	224.914068	648.251684	-454.471686	261.772103	646.164428	-381.635329	159.414174	676.790537	-415.108881	273.975380	406.383111	-392.313793	206.360818	486.046299	-464.368812	-172.978531	899.007289	-277.421908	-53.261796	79.522657	-474.668608	-53.309272	79.182411	-77.057098	
1253	6.2650	769.375821	1239.119193	-188.148260	724.758311	1296.763089	-464.721433	740.588108	1344.363745	-321.109750	671.423503	1192.318742	-333.849573	605.952695	1099.385753	15.143940	704.310550	927.964754	-91.282032	528.994335	1093.874456	-577.800215	692.889953	921.078993	-484.625701	156.487508	1222.638298	-257.065374	282.103300	1254.678181	-408.667087	320.440442	1191.169648	-133.284940	322.168483	1187.236753	-389.013651	344.951990	1130.768365	-175.335524	203.406356	1255.205956	-207.200876	195.854662	1276.560660	-291.129891	229.378312	1067.554346	-125.684200	221.075820	1160.252598	-450.113348	252.599454	962.655314	-107.192959	281.437721	878.258065	-102.861938	264.014101	791.839076	-108.339576	317.974148	880.933923	-109.663630	292.090186	645.047263	-132.869211	230.689657	558.485171	-100.031115	222.545143	470.434044	-109.631468	175.774955	398.671687	-110.771680	251.699207	462.849903	-134.691630	139.394315	268.083704	-117.376394	157.559254	290.495194	-196.235955	65.357039	259.705219	-160.896940	335.272747	133.318475	-158.789175	233.357623	150.175641	-92.391900	329.924680	1068.375771	-478.574388	412.436475	1046.378215	-478.802285	431.445241	1072.543681	-456.881129	475.828845	981.779103	-486.913552	575.291969	874.161254	-461.639639	565.150592	856.454831	-351.037094	474.543238	813.439258	-480.993284	415.263833	750.949360	-467.880631	330.168111	725.430117	-464.401235	434.198465	724.213558	-448.138048	231.639026	650.440692	-454.205417	268.761829	649.157429	-381.817195	165.906912	677.807158	-415.018022	285.504627	409.748831	-392.204936	216.311456	488.217722	-464.517113	-173.024784	899.017118	-277.352359	-53.271394	79.560507	-474.657398	-53.311626	79.197595	-77.031571	
1254	6.2700	768.933489	1238.216514	-190.267902	723.528268	1294.723966	-467.294839	740.148386	1343.167973	-323.735400	669.636516	1191.431795	-335.673010	606.551852	1099.731587	14.906653	704.485557	927.516206	-91.386193	526.889013	1091.551667	-578.120371	692.914925	921.747854	-484.473882	156.879335	1224.043022	-253.549801	280.023423	1257.328581	-406.236721	322.466285	1191.369352	-131.787740	320.672370	1189.985493	-387.757370	346.496409	1131.229980	-174.328468	204.847840	1255.826092	-203.916867	195.616765	1278.317527	-287.458076	230.822129	1068.451039	-124.150013	219.630791	1163.220404	-447.879395	252.063613	964.620201	-106.093625	279.764117	879.818132	-100.699340	261.275037	793.650428	-106.746929	316.120241	881.713014	-107.984536	287.829676	645.905118	-130.905191	225.486573	559.812710	-98.149865	216.864898	471.798796	-108.009567	169.746573	400.469621	-108.761807	246.500483	464.306114	-132.467532	132.728799	269.680129	-115.698776	151.116576	292.157936	-194.399467	58.644792	263.419179	-158.702729	325.096990	129.854274	-159.303478	224.084167	148.904593	-91.956047	328.836096	1072.364136	-476.842093	411.803548	1051.606307	-478.261497	430.630930	1077.992410	-456.246544	476.138381	987.729931	-486.366251	577.790522	882.088399	-462.649458	568.574569	864.562877	-351.412838	478.240413	819.777811	-481.132817	420.073313	756.270647	-467.989905	335.451601	729.233081	-464.278390	439.574778	729.666808	-448.584072	238.042266	651.849154	-453.971099	275.408271	651.332396	-381.962703	171.791611	678.008873	-414.820237	297.170032	412.560601	-392.182459	226.366443	489.708381	-464.631407	-172.997987	899.061569	-277.271618	-53.272973	79.578330	-474.627608	-53.301074	79.196355	-77.020113	
